<svg width="71" height="65" viewBox="0 0 71 65" fill="none" xmlns="http://www.w3.org/2000/svg">
<path fill-rule="evenodd" clip-rule="evenodd" d="M17.5733 12.2477V7.81967C17.5733 4.54059 19.9651 1.75498 23.1982 1.26856L27.8022 0.57587C32.9054 -0.191916 38.0947 -0.191916 43.198 0.57587L47.802 1.26856C51.0352 1.75498 53.4269 4.54059 53.4269 7.81967V12.2477L59.8956 12.7714C64.8487 13.1724 68.8892 16.9129 69.6832 21.8328C71.4389 32.7066 71.4389 43.7924 69.6832 54.6663C68.8892 59.5861 64.8487 63.3264 59.8956 63.7277L52.8309 64.2996C41.2959 65.2335 29.7043 65.2335 18.1691 64.2996L11.1044 63.7277C6.15138 63.3264 2.1111 59.5861 1.31674 54.6663C-0.438913 43.7924 -0.438913 32.7066 1.31674 21.8328C2.1111 16.9129 6.15138 13.1724 11.1044 12.7714L17.5733 12.2477ZM28.6419 6.19113C33.1885 5.50707 37.8117 5.50707 42.3583 6.19113L46.9623 6.88377C47.4242 6.95327 47.7658 7.35123 47.7658 7.81967V11.8496C39.5953 11.3822 31.4048 11.3822 23.2344 11.8496V7.81967C23.2344 7.35123 23.5761 6.95327 24.0379 6.88377L28.6419 6.19113ZM18.6246 17.8591C29.8567 16.9498 41.1434 16.9498 52.3754 17.8591L59.4401 18.4311C61.7958 18.6218 63.7172 20.4007 64.095 22.7405C64.3305 24.1976 64.5324 25.6586 64.7007 27.1228C46.2924 36.2145 24.7077 36.2145 6.29937 27.1228C6.46788 25.6586 6.66975 24.1976 6.90503 22.7405C7.28281 20.4007 9.2043 18.6218 11.5599 18.4311L18.6246 17.8591ZM5.79406 33.1646C24.6621 41.7714 46.338 41.7714 65.2061 33.1646C65.5657 40.0392 65.1955 46.943 64.095 53.7585C63.7172 56.0983 61.7958 57.8774 59.4401 58.0678L52.3754 58.6398C41.1434 59.5494 29.8567 59.5494 18.6246 58.6398L11.5599 58.0678C9.2043 57.8774 7.28281 56.0983 6.90503 53.7585C5.80462 46.943 5.43428 40.0392 5.79406 33.1646Z" fill="#348888"/>
</svg>
