<svg width="217" height="59" viewBox="0 0 217 59" fill="none" xmlns="http://www.w3.org/2000/svg">
<path d="M99.452 20.124V39.5H96.904V25.052L90.464 39.5H88.672L82.204 25.024V39.5H79.656V20.124H82.4L89.568 36.14L96.736 20.124H99.452ZM105.089 21.664C104.604 21.664 104.193 21.496 103.857 21.16C103.521 20.824 103.353 20.4133 103.353 19.928C103.353 19.4427 103.521 19.032 103.857 18.696C104.193 18.36 104.604 18.192 105.089 18.192C105.556 18.192 105.948 18.36 106.265 18.696C106.601 19.032 106.769 19.4427 106.769 19.928C106.769 20.4133 106.601 20.824 106.265 21.16C105.948 21.496 105.556 21.664 105.089 21.664ZM106.321 24.156V39.5H103.773V24.156H106.321ZM116.096 39.752C114.92 39.752 113.865 39.556 112.932 39.164C111.998 38.7533 111.261 38.1933 110.72 37.484C110.178 36.756 109.88 35.9253 109.824 34.992H112.456C112.53 35.7573 112.885 36.3827 113.52 36.868C114.173 37.3533 115.022 37.596 116.068 37.596C117.038 37.596 117.804 37.3813 118.364 36.952C118.924 36.5227 119.204 35.9813 119.204 35.328C119.204 34.656 118.905 34.1613 118.308 33.844C117.71 33.508 116.786 33.1813 115.536 32.864C114.397 32.5653 113.464 32.2667 112.736 31.968C112.026 31.6507 111.41 31.1933 110.888 30.596C110.384 29.98 110.132 29.1773 110.132 28.188C110.132 27.404 110.365 26.6853 110.832 26.032C111.298 25.3787 111.961 24.8653 112.82 24.492C113.678 24.1 114.658 23.904 115.76 23.904C117.458 23.904 118.83 24.3333 119.876 25.192C120.921 26.0507 121.481 27.2267 121.556 28.72H119.008C118.952 27.9173 118.625 27.2733 118.028 26.788C117.449 26.3027 116.665 26.06 115.676 26.06C114.761 26.06 114.033 26.256 113.492 26.648C112.95 27.04 112.68 27.5533 112.68 28.188C112.68 28.692 112.838 29.112 113.156 29.448C113.492 29.7653 113.902 30.0267 114.388 30.232C114.892 30.4187 115.582 30.6333 116.46 30.876C117.561 31.1747 118.457 31.4733 119.148 31.772C119.838 32.052 120.426 32.4813 120.912 33.06C121.416 33.6387 121.677 34.3947 121.696 35.328C121.696 36.168 121.462 36.924 120.996 37.596C120.529 38.268 119.866 38.8 119.008 39.192C118.168 39.5653 117.197 39.752 116.096 39.752ZM128.401 26.256V35.3C128.401 36.0467 128.559 36.5787 128.877 36.896C129.194 37.1947 129.745 37.344 130.529 37.344H132.405V39.5H130.109C128.69 39.5 127.626 39.1733 126.917 38.52C126.207 37.8667 125.853 36.7933 125.853 35.3V26.256H123.865V24.156H125.853V20.292H128.401V24.156H132.405V26.256H128.401ZM136.808 21.664C136.323 21.664 135.912 21.496 135.576 21.16C135.24 20.824 135.072 20.4133 135.072 19.928C135.072 19.4427 135.24 19.032 135.576 18.696C135.912 18.36 136.323 18.192 136.808 18.192C137.275 18.192 137.667 18.36 137.984 18.696C138.32 19.032 138.488 19.4427 138.488 19.928C138.488 20.4133 138.32 20.824 137.984 21.16C137.667 21.496 137.275 21.664 136.808 21.664ZM138.04 24.156V39.5H135.492V24.156H138.04ZM144.931 27.012C145.453 26.0973 146.219 25.3507 147.227 24.772C148.235 24.1933 149.383 23.904 150.671 23.904C152.052 23.904 153.293 24.2307 154.395 24.884C155.496 25.5373 156.364 26.4613 156.999 27.656C157.633 28.832 157.951 30.204 157.951 31.772C157.951 33.3213 157.633 34.7027 156.999 35.916C156.364 37.1293 155.487 38.072 154.367 38.744C153.265 39.416 152.033 39.752 150.671 39.752C149.345 39.752 148.179 39.4627 147.171 38.884C146.181 38.3053 145.435 37.568 144.931 36.672V39.5H142.383V18.78H144.931V27.012ZM155.347 31.772C155.347 30.6147 155.113 29.6067 154.647 28.748C154.18 27.8893 153.545 27.236 152.743 26.788C151.959 26.34 151.091 26.116 150.139 26.116C149.205 26.116 148.337 26.3493 147.535 26.816C146.751 27.264 146.116 27.9267 145.631 28.804C145.164 29.6627 144.931 30.6613 144.931 31.8C144.931 32.9573 145.164 33.9747 145.631 34.852C146.116 35.7107 146.751 36.3733 147.535 36.84C148.337 37.288 149.205 37.512 150.139 37.512C151.091 37.512 151.959 37.288 152.743 36.84C153.545 36.3733 154.18 35.7107 154.647 34.852C155.113 33.9747 155.347 32.948 155.347 31.772ZM174.912 24.156V39.5H172.364V37.232C171.879 38.016 171.198 38.632 170.32 39.08C169.462 39.5093 168.51 39.724 167.464 39.724C166.27 39.724 165.196 39.4813 164.244 38.996C163.292 38.492 162.536 37.7453 161.976 36.756C161.435 35.7667 161.164 34.5627 161.164 33.144V24.156H163.684V32.808C163.684 34.32 164.067 35.4867 164.832 36.308C165.598 37.1107 166.643 37.512 167.968 37.512C169.331 37.512 170.404 37.092 171.188 36.252C171.972 35.412 172.364 34.1893 172.364 32.584V24.156H174.912ZM184.647 39.752C183.471 39.752 182.416 39.556 181.483 39.164C180.549 38.7533 179.812 38.1933 179.271 37.484C178.729 36.756 178.431 35.9253 178.375 34.992H181.007C181.081 35.7573 181.436 36.3827 182.071 36.868C182.724 37.3533 183.573 37.596 184.619 37.596C185.589 37.596 186.355 37.3813 186.915 36.952C187.475 36.5227 187.755 35.9813 187.755 35.328C187.755 34.656 187.456 34.1613 186.859 33.844C186.261 33.508 185.337 33.1813 184.087 32.864C182.948 32.5653 182.015 32.2667 181.287 31.968C180.577 31.6507 179.961 31.1933 179.439 30.596C178.935 29.98 178.683 29.1773 178.683 28.188C178.683 27.404 178.916 26.6853 179.383 26.032C179.849 25.3787 180.512 24.8653 181.371 24.492C182.229 24.1 183.209 23.904 184.311 23.904C186.009 23.904 187.381 24.3333 188.427 25.192C189.472 26.0507 190.032 27.2267 190.107 28.72H187.559C187.503 27.9173 187.176 27.2733 186.579 26.788C186 26.3027 185.216 26.06 184.227 26.06C183.312 26.06 182.584 26.256 182.043 26.648C181.501 27.04 181.231 27.5533 181.231 28.188C181.231 28.692 181.389 29.112 181.707 29.448C182.043 29.7653 182.453 30.0267 182.939 30.232C183.443 30.4187 184.133 30.6333 185.011 30.876C186.112 31.1747 187.008 31.4733 187.699 31.772C188.389 32.052 188.977 32.4813 189.463 33.06C189.967 33.6387 190.228 34.3947 190.247 35.328C190.247 36.168 190.013 36.924 189.547 37.596C189.08 38.268 188.417 38.8 187.559 39.192C186.719 39.5653 185.748 39.752 184.647 39.752ZM201.46 23.876C202.617 23.876 203.662 24.128 204.596 24.632C205.529 25.1173 206.257 25.8547 206.78 26.844C207.321 27.8333 207.592 29.0373 207.592 30.456V39.5H205.072V30.82C205.072 29.2893 204.689 28.1227 203.924 27.32C203.158 26.4987 202.113 26.088 200.788 26.088C199.444 26.088 198.37 26.508 197.568 27.348C196.784 28.188 196.392 29.4107 196.392 31.016V39.5H193.844V18.78H196.392V26.34C196.896 25.556 197.586 24.9493 198.464 24.52C199.36 24.0907 200.358 23.876 201.46 23.876ZM213.07 21.664C212.584 21.664 212.174 21.496 211.838 21.16C211.502 20.824 211.334 20.4133 211.334 19.928C211.334 19.4427 211.502 19.032 211.838 18.696C212.174 18.36 212.584 18.192 213.07 18.192C213.536 18.192 213.928 18.36 214.246 18.696C214.582 19.032 214.75 19.4427 214.75 19.928C214.75 20.4133 214.582 20.824 214.246 21.16C213.928 21.496 213.536 21.664 213.07 21.664ZM214.302 24.156V39.5H211.754V24.156H214.302Z" fill="#8C8C8C"/>
<path d="M29.5 4.125L38.1698 18.7301L29.5 33.3351L20.8302 18.8351L29.5 4.125ZM29.5 33.3351H46.4167L54.875 47.625H37.9583L29.5 33.3351ZM29.5 33.3351H12.5833L4.125 47.625H21.0417L29.5 33.3351Z" fill="#8C8C8C" fill-opacity="0.4"/>
</svg>
