<svg width="156" height="47" viewBox="0 0 156 47" fill="none" xmlns="http://www.w3.org/2000/svg">
<path d="M89 33.5H86.452L76.204 17.96V33.5H73.656V13.956H76.204L86.452 29.468V13.956H89V33.5ZM107.344 25.24C107.344 25.7253 107.316 26.2387 107.26 26.78H94.9955C95.0888 28.292 95.6022 29.4773 96.5355 30.336C97.4875 31.176 98.6355 31.596 99.9795 31.596C101.081 31.596 101.996 31.344 102.724 30.84C103.47 30.3173 103.993 29.6267 104.292 28.768H107.036C106.625 30.2427 105.804 31.4467 104.572 32.38C103.34 33.2947 101.809 33.752 99.9795 33.752C98.5235 33.752 97.2168 33.4253 96.0595 32.772C94.9208 32.1187 94.0248 31.1947 93.3715 30C92.7182 28.7867 92.3915 27.3867 92.3915 25.8C92.3915 24.2133 92.7088 22.8227 93.3435 21.628C93.9782 20.4333 94.8648 19.5187 96.0035 18.884C97.1608 18.2307 98.4862 17.904 99.9795 17.904C101.436 17.904 102.724 18.2213 103.844 18.856C104.964 19.4907 105.822 20.368 106.42 21.488C107.036 22.5893 107.344 23.84 107.344 25.24ZM104.712 24.708C104.712 23.7373 104.497 22.9067 104.068 22.216C103.638 21.5067 103.05 20.9747 102.304 20.62C101.576 20.2467 100.764 20.06 99.8675 20.06C98.5795 20.06 97.4782 20.4707 96.5635 21.292C95.6675 22.1133 95.1542 23.252 95.0235 24.708H104.712ZM113.815 20.256V29.3C113.815 30.0467 113.973 30.5787 114.291 30.896C114.608 31.1947 115.159 31.344 115.943 31.344H117.819V33.5H115.523C114.104 33.5 113.04 33.1733 112.331 32.52C111.621 31.8667 111.267 30.7933 111.267 29.3V20.256H109.279V18.156H111.267V14.292H113.815V18.156H117.819V20.256H113.815ZM127.15 20.256H123.93V33.5H121.382V20.256H119.394V18.156H121.382V17.064C121.382 15.3467 121.821 14.096 122.698 13.312C123.594 12.5093 125.022 12.108 126.982 12.108V14.236C125.862 14.236 125.069 14.46 124.602 14.908C124.154 15.3373 123.93 16.056 123.93 17.064V18.156H127.15V20.256ZM132.669 12.78V33.5H130.121V12.78H132.669ZM138.327 15.664C137.842 15.664 137.431 15.496 137.095 15.16C136.759 14.824 136.591 14.4133 136.591 13.928C136.591 13.4427 136.759 13.032 137.095 12.696C137.431 12.36 137.842 12.192 138.327 12.192C138.794 12.192 139.186 12.36 139.503 12.696C139.839 13.032 140.007 13.4427 140.007 13.928C140.007 14.4133 139.839 14.824 139.503 15.16C139.186 15.496 138.794 15.664 138.327 15.664ZM139.559 18.156V33.5H137.011V18.156H139.559ZM151.91 33.5L148.27 27.788L144.77 33.5H142.11L147.066 25.884L142.11 18.156H144.994L148.634 23.84L152.106 18.156H154.766L149.838 25.744L154.794 33.5H151.91Z" fill="#8C8C8C"/>
<path d="M27.1793 3.49384L27.1609 12.3496L27.1425 21.2054L26.2972 19.1496V19.1443L25.2007 38.8589C26.2788 41.4735 26.8546 42.8704 26.8607 42.8757C26.8668 42.8809 27.4794 42.9126 28.2206 42.9442C30.4626 43.0391 33.2436 43.2447 35.3569 43.4713C35.847 43.524 36.2635 43.5504 36.2941 43.5293C36.3248 43.5082 36.3309 34.4943 36.3248 23.4931L36.3064 3.49384H27.1793Z" fill="#8C8C8C" fill-opacity="0.4"/>
<path d="M10.6685 3.46731V23.4877C10.6685 34.4995 10.6807 43.5187 10.6991 43.5345C10.7175 43.5503 11.5077 43.4818 12.4633 43.3922C13.4189 43.3026 14.7359 43.1866 15.3913 43.1392C16.3959 43.0654 19.4097 42.9019 19.7527 42.8967C19.8569 42.8967 19.863 42.4486 19.8752 34.4151L19.8936 25.9336L20.6226 27.7048C20.7328 27.9789 20.7696 28.0632 20.8798 28.3321L21.9763 8.62264C21.7436 8.05861 21.8661 8.35381 21.6027 7.71071C20.7083 5.53366 19.9488 3.69397 19.9181 3.60963L19.8569 3.46204H10.6685V3.46731Z" fill="#8C8C8C" fill-opacity="0.4"/>
<path d="M10.6685 3.46731L19.8875 25.9493V25.9387L20.6165 27.7099C24.6655 37.5725 26.8402 42.8648 26.8524 42.8754C26.8585 42.8806 27.4711 42.9123 28.2123 42.9439C30.4543 43.0388 33.2353 43.2443 35.3487 43.471C35.8326 43.5237 36.2553 43.5501 36.2798 43.529L27.1403 21.1999V21.2051L26.295 19.1493C25.468 17.141 24.9167 15.7968 21.5905 7.71068C20.6961 5.53365 19.9366 3.69397 19.9059 3.60963L19.8447 3.46204H15.2566L10.6685 3.46731Z" fill="#CDD1D1"/>
</svg>
