<svg width="51" height="56" viewBox="0 0 51 56" fill="none" xmlns="http://www.w3.org/2000/svg">
<path fill-rule="evenodd" clip-rule="evenodd" d="M11.5161 14.0173C11.5161 6.27578 17.7769 3.05176e-05 25.5 3.05176e-05C33.223 3.05176e-05 39.4839 6.27578 39.4839 14.0173C39.4839 21.7588 33.223 28.0346 25.5 28.0346C17.7769 28.0346 11.5161 21.7588 11.5161 14.0173ZM25.5 4.9473C20.5026 4.9473 16.4516 9.00809 16.4516 14.0173C16.4516 19.0265 20.5026 23.0873 25.5 23.0873C30.4973 23.0873 34.5484 19.0265 34.5484 14.0173C34.5484 9.00809 30.4973 4.9473 25.5 4.9473Z" fill="#FA7F08"/>
<path fill-rule="evenodd" clip-rule="evenodd" d="M12.3387 37.9291C8.25002 37.9291 4.93548 41.2517 4.93548 45.35V49.2693C4.93548 49.329 4.97862 49.3798 5.03739 49.3893C18.5894 51.6073 32.4107 51.6073 45.9625 49.3893C46.0214 49.3798 46.0645 49.329 46.0645 49.2693V45.35C46.0645 41.2517 42.7498 37.9291 38.6613 37.9291H37.5396C37.4531 37.9291 37.3669 37.943 37.2843 37.9697L34.4365 38.9021C28.6298 40.8025 22.3702 40.8025 16.5634 38.9021L13.7156 37.9697C13.6332 37.943 13.547 37.9291 13.4603 37.9291H12.3387ZM0 45.35C0 38.5192 5.52422 32.9818 12.3387 32.9818H13.4603C14.0673 32.9818 14.6705 33.0781 15.2476 33.2668L18.0954 34.1992C22.9069 35.7738 28.0931 35.7738 32.9045 34.1992L35.7523 33.2668C36.3294 33.0781 36.9326 32.9818 37.5396 32.9818H38.6613C45.4759 32.9818 51 38.5192 51 45.35V49.2693C51 51.7535 49.2038 53.8715 46.7578 54.2719C32.6791 56.5761 18.3208 56.5761 4.24211 54.2719C1.79612 53.8715 0 51.7535 0 49.2693V45.35Z" fill="#FA7F08"/>
</svg>
