<svg width="211" height="69" viewBox="0 0 211 69" fill="none" xmlns="http://www.w3.org/2000/svg">
<path d="M109.32 24.984L102.964 37.136V44.5H100.416V37.136L94.032 24.984H96.86L101.676 34.868L106.492 24.984H109.32ZM118.7 44.752C117.262 44.752 115.956 44.4253 114.78 43.772C113.622 43.1187 112.708 42.1947 112.036 41C111.382 39.7867 111.056 38.3867 111.056 36.8C111.056 35.232 111.392 33.8507 112.064 32.656C112.754 31.4427 113.688 30.5187 114.864 29.884C116.04 29.2307 117.356 28.904 118.812 28.904C120.268 28.904 121.584 29.2307 122.76 29.884C123.936 30.5187 124.86 31.4333 125.532 32.628C126.222 33.8227 126.568 35.2133 126.568 36.8C126.568 38.3867 126.213 39.7867 125.504 41C124.813 42.1947 123.87 43.1187 122.676 43.772C121.481 44.4253 120.156 44.752 118.7 44.752ZM118.7 42.512C119.614 42.512 120.473 42.2973 121.276 41.868C122.078 41.4387 122.722 40.7947 123.208 39.936C123.712 39.0773 123.964 38.032 123.964 36.8C123.964 35.568 123.721 34.5227 123.236 33.664C122.75 32.8053 122.116 32.1707 121.332 31.76C120.548 31.3307 119.698 31.116 118.784 31.116C117.85 31.116 116.992 31.3307 116.208 31.76C115.442 32.1707 114.826 32.8053 114.36 33.664C113.893 34.5227 113.66 35.568 113.66 36.8C113.66 38.0507 113.884 39.1053 114.332 39.964C114.798 40.8227 115.414 41.4667 116.18 41.896C116.945 42.3067 117.785 42.512 118.7 42.512ZM143.526 29.156V44.5H140.978V42.232C140.492 43.016 139.811 43.632 138.934 44.08C138.075 44.5093 137.123 44.724 136.078 44.724C134.883 44.724 133.81 44.4813 132.858 43.996C131.906 43.492 131.15 42.7453 130.59 41.756C130.048 40.7667 129.778 39.5627 129.778 38.144V29.156H132.298V37.808C132.298 39.32 132.68 40.4867 133.446 41.308C134.211 42.1107 135.256 42.512 136.582 42.512C137.944 42.512 139.018 42.092 139.802 41.252C140.586 40.412 140.978 39.1893 140.978 37.584V29.156H143.526ZM150.936 31.256V40.3C150.936 41.0467 151.095 41.5787 151.412 41.896C151.729 42.1947 152.28 42.344 153.064 42.344H154.94V44.5H152.644C151.225 44.5 150.161 44.1733 149.452 43.52C148.743 42.8667 148.388 41.7933 148.388 40.3V31.256H146.4V29.156H148.388V25.292H150.936V29.156H154.94V31.256H150.936ZM171.635 29.156V44.5H169.087V42.232C168.602 43.016 167.92 43.632 167.043 44.08C166.184 44.5093 165.232 44.724 164.187 44.724C162.992 44.724 161.919 44.4813 160.967 43.996C160.015 43.492 159.259 42.7453 158.699 41.756C158.158 40.7667 157.887 39.5627 157.887 38.144V29.156H160.407V37.808C160.407 39.32 160.79 40.4867 161.555 41.308C162.32 42.1107 163.366 42.512 164.691 42.512C166.054 42.512 167.127 42.092 167.911 41.252C168.695 40.412 169.087 39.1893 169.087 37.584V29.156H171.635ZM178.485 32.012C179.008 31.0973 179.773 30.3507 180.781 29.772C181.789 29.1933 182.937 28.904 184.225 28.904C185.607 28.904 186.848 29.2307 187.949 29.884C189.051 30.5373 189.919 31.4613 190.553 32.656C191.188 33.832 191.505 35.204 191.505 36.772C191.505 38.3213 191.188 39.7027 190.553 40.916C189.919 42.1293 189.041 43.072 187.921 43.744C186.82 44.416 185.588 44.752 184.225 44.752C182.9 44.752 181.733 44.4627 180.725 43.884C179.736 43.3053 178.989 42.568 178.485 41.672V44.5H175.937V23.78H178.485V32.012ZM188.901 36.772C188.901 35.6147 188.668 34.6067 188.201 33.748C187.735 32.8893 187.1 32.236 186.297 31.788C185.513 31.34 184.645 31.116 183.693 31.116C182.76 31.116 181.892 31.3493 181.089 31.816C180.305 32.264 179.671 32.9267 179.185 33.804C178.719 34.6627 178.485 35.6613 178.485 36.8C178.485 37.9573 178.719 38.9747 179.185 39.852C179.671 40.7107 180.305 41.3733 181.089 41.84C181.892 42.288 182.76 42.512 183.693 42.512C184.645 42.512 185.513 42.288 186.297 41.84C187.1 41.3733 187.735 40.7107 188.201 39.852C188.668 38.9747 188.901 37.948 188.901 36.772ZM208.859 36.24C208.859 36.7253 208.831 37.2387 208.775 37.78H196.511C196.604 39.292 197.118 40.4773 198.051 41.336C199.003 42.176 200.151 42.596 201.495 42.596C202.596 42.596 203.511 42.344 204.239 41.84C204.986 41.3173 205.508 40.6267 205.807 39.768H208.551C208.14 41.2427 207.319 42.4467 206.087 43.38C204.855 44.2947 203.324 44.752 201.495 44.752C200.039 44.752 198.732 44.4253 197.575 43.772C196.436 43.1187 195.54 42.1947 194.887 41C194.234 39.7867 193.907 38.3867 193.907 36.8C193.907 35.2133 194.224 33.8227 194.859 32.628C195.494 31.4333 196.38 30.5187 197.519 29.884C198.676 29.2307 200.002 28.904 201.495 28.904C202.951 28.904 204.239 29.2213 205.359 29.856C206.479 30.4907 207.338 31.368 207.935 32.488C208.551 33.5893 208.859 34.84 208.859 36.24ZM206.227 35.708C206.227 34.7373 206.012 33.9067 205.583 33.216C205.154 32.5067 204.566 31.9747 203.819 31.62C203.091 31.2467 202.279 31.06 201.383 31.06C200.095 31.06 198.994 31.4707 198.079 32.292C197.183 33.1133 196.67 34.252 196.539 35.708H206.227Z" fill="#8C8C8C"/>
<path d="M5.26958 21.6249C5.5427 17.42 8.92339 14.1246 13.132 13.9161C19.2263 13.6141 27.9369 13.25 34.5 13.25C41.0631 13.25 49.7737 13.6141 55.868 13.9161C60.0766 14.1246 63.4573 17.42 63.7304 21.6249C63.9921 25.6535 64.25 30.6105 64.25 34.5C64.25 38.3895 63.9921 43.3465 63.7304 47.3751C63.4573 51.58 60.0766 54.8754 55.868 55.0839C49.7737 55.3859 41.0631 55.75 34.5 55.75C27.9369 55.75 19.2263 55.3859 13.132 55.0839C8.92339 54.8754 5.5427 51.58 5.26958 47.3751C5.0079 43.3465 4.75 38.3895 4.75 34.5C4.75 30.6105 5.0079 25.6535 5.26958 21.6249Z" fill="#8C8C8C" fill-opacity="0.4"/>
<path d="M28.125 26V43L45.125 34.5L28.125 26Z" fill="white" fill-opacity="0.4"/>
</svg>
