<svg width="56" height="56" viewBox="0 0 56 56" fill="none" xmlns="http://www.w3.org/2000/svg">
<path opacity="0.2" d="M28 56C43.464 56 56 43.464 56 28C56 12.536 43.464 0 28 0C12.536 0 0 12.536 0 28C0 43.464 12.536 56 28 56Z" fill="#F3BA2F"/>
<path fill-rule="evenodd" clip-rule="evenodd" d="M22.146 25.5933L28.0027 19.7392L33.8617 25.598L37.2675 22.1899L28.0027 12.923L18.7378 22.1875L22.146 25.5933ZM12.9229 28.0004L16.3298 24.5935L19.7368 28.0004L16.3298 31.4073L12.9229 28.0004ZM28.0027 36.263L22.146 30.4066L18.733 33.8099L18.7378 33.8147L28.0027 43.0768L37.2675 33.8099L37.2699 33.8075L33.8617 30.4042L28.0027 36.263ZM36.2627 28.0012L39.6697 24.5943L43.0767 28.0012L39.6697 31.4081L36.2627 28.0012ZM28.0027 24.5406L31.4585 27.9988H31.4609L31.4585 28.0012L28.0027 31.4593L24.5468 28.0059L24.542 27.9988L24.5468 27.994L25.1518 27.3891L25.4471 27.0961L28.0027 24.5406Z" fill="#F3BA2F"/>
</svg>
