<svg width="33" height="33" viewBox="0 0 33 33" fill="none" xmlns="http://www.w3.org/2000/svg">
<rect x="2.5" y="2.96875" width="28" height="28" rx="6" fill="url(#paint0_radial_99_121)"/>
<rect x="2.5" y="2.96875" width="28" height="28" rx="6" fill="url(#paint1_radial_99_121)"/>
<rect x="2.5" y="2.96875" width="28" height="28" rx="6" fill="url(#paint2_radial_99_121)"/>
<path d="M23.5 11.4688C23.5 12.2972 22.8284 12.9688 22 12.9688C21.1716 12.9688 20.5 12.2972 20.5 11.4688C20.5 10.6403 21.1716 9.96875 22 9.96875C22.8284 9.96875 23.5 10.6403 23.5 11.4688Z" fill="white"/>
<path fill-rule="evenodd" clip-rule="evenodd" d="M16.5 21.9688C19.2614 21.9688 21.5 19.7302 21.5 16.9688C21.5 14.2073 19.2614 11.9688 16.5 11.9688C13.7386 11.9688 11.5 14.2073 11.5 16.9688C11.5 19.7302 13.7386 21.9688 16.5 21.9688ZM16.5 19.9688C18.1569 19.9688 19.5 18.6256 19.5 16.9688C19.5 15.3119 18.1569 13.9688 16.5 13.9688C14.8431 13.9688 13.5 15.3119 13.5 16.9688C13.5 18.6256 14.8431 19.9688 16.5 19.9688Z" fill="white"/>
<path fill-rule="evenodd" clip-rule="evenodd" d="M6.5 16.5688C6.5 13.2084 6.5 11.5283 7.15396 10.2448C7.7292 9.11583 8.64708 8.19795 9.77606 7.62271C11.0595 6.96875 12.7397 6.96875 16.1 6.96875H16.9C20.2603 6.96875 21.9405 6.96875 23.2239 7.62271C24.3529 8.19795 25.2708 9.11583 25.846 10.2448C26.5 11.5283 26.5 13.2084 26.5 16.5688V17.3687C26.5 20.7291 26.5 22.4092 25.846 23.6927C25.2708 24.8217 24.3529 25.7395 23.2239 26.3148C21.9405 26.9688 20.2603 26.9688 16.9 26.9688H16.1C12.7397 26.9688 11.0595 26.9688 9.77606 26.3148C8.64708 25.7395 7.7292 24.8217 7.15396 23.6927C6.5 22.4092 6.5 20.7291 6.5 17.3687V16.5688ZM16.1 8.96875H16.9C18.6132 8.96875 19.7777 8.97031 20.6779 9.04385C21.5548 9.11549 22.0032 9.24534 22.316 9.40472C23.0686 9.78822 23.6805 10.4001 24.064 11.1528C24.2234 11.4656 24.3533 11.914 24.4249 12.7908C24.4984 13.691 24.5 14.8556 24.5 16.5688V17.3687C24.5 19.0819 24.4984 20.2465 24.4249 21.1467C24.3533 22.0235 24.2234 22.4719 24.064 22.7847C23.6805 23.5374 23.0686 24.1493 22.316 24.5328C22.0032 24.6922 21.5548 24.822 20.6779 24.8936C19.7777 24.9672 18.6132 24.9688 16.9 24.9688H16.1C14.3868 24.9688 13.2223 24.9672 12.3221 24.8936C11.4452 24.822 10.9968 24.6922 10.684 24.5328C9.93139 24.1493 9.31947 23.5374 8.93597 22.7847C8.77659 22.4719 8.64674 22.0235 8.5751 21.1467C8.50156 20.2465 8.5 19.0819 8.5 17.3687V16.5688C8.5 14.8556 8.50156 13.691 8.5751 12.7908C8.64674 11.914 8.77659 11.4656 8.93597 11.1528C9.31947 10.4001 9.93139 9.78822 10.684 9.40472C10.9968 9.24534 11.4452 9.11549 12.3221 9.04385C13.2223 8.97031 14.3868 8.96875 16.1 8.96875Z" fill="white"/>
<defs>
<radialGradient id="paint0_radial_99_121" cx="0" cy="0" r="1" gradientUnits="userSpaceOnUse" gradientTransform="translate(12.5 23.9688) rotate(-55.3758) scale(25.5196)">
<stop stop-color="#B13589"/>
<stop offset="0.79309" stop-color="#C62F94"/>
<stop offset="1" stop-color="#8A3AC8"/>
</radialGradient>
<radialGradient id="paint1_radial_99_121" cx="0" cy="0" r="1" gradientUnits="userSpaceOnUse" gradientTransform="translate(11.5 31.9687) rotate(-65.1363) scale(22.5942)">
<stop stop-color="#E0E8B7"/>
<stop offset="0.444662" stop-color="#FB8A2E"/>
<stop offset="0.71474" stop-color="#E2425C"/>
<stop offset="1" stop-color="#E2425C" stop-opacity="0"/>
</radialGradient>
<radialGradient id="paint2_radial_99_121" cx="0" cy="0" r="1" gradientUnits="userSpaceOnUse" gradientTransform="translate(1 3.96875) rotate(-8.1301) scale(38.8909 8.31836)">
<stop offset="0.156701" stop-color="#406ADC"/>
<stop offset="0.467799" stop-color="#6A45BE"/>
<stop offset="1" stop-color="#6A45BE" stop-opacity="0"/>
</radialGradient>
</defs>
</svg>
