<svg width="33" height="33" viewBox="0 0 33 33" fill="none" xmlns="http://www.w3.org/2000/svg">
<rect x="2.5" y="2.96875" width="28" height="28" rx="14" fill="#1275B1"/>
<path d="M13.1186 10.6609C13.1186 11.5954 12.3085 12.353 11.3093 12.353C10.31 12.353 9.5 11.5954 9.5 10.6609C9.5 9.72635 10.31 8.96875 11.3093 8.96875C12.3085 8.96875 13.1186 9.72635 13.1186 10.6609Z" fill="white"/>
<path d="M9.74742 13.5968H12.8402V22.9688H9.74742V13.5968Z" fill="white"/>
<path d="M17.8196 13.5968H14.7268V22.9688H17.8196C17.8196 22.9688 17.8196 20.0183 17.8196 18.1736C17.8196 17.0664 18.1977 15.9543 19.7062 15.9543C21.411 15.9543 21.4008 17.4033 21.3928 18.5258C21.3824 19.9932 21.4072 21.4906 21.4072 22.9688H24.5V18.0225C24.4738 14.8641 23.6508 13.4088 20.9433 13.4088C19.3354 13.4088 18.3387 14.1388 17.8196 14.7992V13.5968Z" fill="white"/>
</svg>
