<svg width="56" height="56" viewBox="0 0 56 56" fill="none" xmlns="http://www.w3.org/2000/svg">
<path d="M32.479 3.64478L32.4566 14.4257L32.4343 25.2067L31.4052 22.7039V22.6975L30.0703 46.6979C31.3828 49.8809 32.0838 51.5815 32.0912 51.5879C32.0987 51.5943 32.8444 51.6328 33.7467 51.6713C36.4761 51.7868 39.8617 52.0371 42.4344 52.313C43.031 52.3772 43.5381 52.4093 43.5754 52.3836C43.6127 52.3579 43.6201 41.3845 43.6127 27.9917L43.5903 3.64478H32.479Z" fill="url(#paint0_linear_88_3396)"/>
<path d="M12.3789 3.61237V27.9851C12.3789 41.3907 12.3938 52.3706 12.4162 52.3898C12.4386 52.4091 13.4006 52.3257 14.5639 52.2166C15.7272 52.1075 17.3305 51.9663 18.1285 51.9085C19.3514 51.8187 23.0204 51.6198 23.438 51.6133C23.5648 51.6133 23.5723 51.0679 23.5872 41.288L23.6095 30.9627L24.497 33.1188C24.6312 33.4525 24.6759 33.5552 24.8102 33.8825L26.145 9.88844C25.8616 9.20179 26.0108 9.56116 25.6901 8.77825C24.6014 6.12793 23.6767 3.88831 23.6394 3.78564L23.5648 3.60596H12.3789V3.61237Z" fill="url(#paint1_linear_88_3396)"/>
<path d="M12.3789 3.61237L23.6021 30.9817V30.9689L24.4896 33.1251C29.4188 45.1317 32.0662 51.5746 32.0811 51.5874C32.0886 51.5938 32.8343 51.6323 33.7366 51.6708C36.466 51.7863 39.8516 52.0366 42.4244 52.3125C43.0135 52.3767 43.5281 52.4088 43.5579 52.3831L32.4316 25.1998V25.2063L31.4025 22.7036C30.3958 20.2586 29.7246 18.6222 25.6753 8.77822C24.5865 6.12792 23.6618 3.88831 23.6245 3.78564L23.5499 3.60596H17.9644L12.3789 3.61237Z" fill="#E30A17"/>
<defs>
<linearGradient id="paint0_linear_88_3396" x1="48.6242" y1="40.0934" x2="30.8401" y2="47.9035" gradientUnits="userSpaceOnUse">
<stop stop-color="#B20610"/>
<stop offset="0.255959" stop-color="#B20610"/>
<stop offset="1" stop-color="#590004"/>
</linearGradient>
<linearGradient id="paint1_linear_88_3396" x1="6.98597" y1="14.2995" x2="26.2189" y2="5.95068" gradientUnits="userSpaceOnUse">
<stop stop-color="#B20610"/>
<stop offset="0.255959" stop-color="#B20610"/>
<stop offset="1" stop-color="#590004"/>
</linearGradient>
</defs>
</svg>
