<svg width="306" height="30" viewBox="0 0 306 30" fill="none" xmlns="http://www.w3.org/2000/svg">
<path d="M2 4.59269C18.1113 3.24308 32.1119 2.13458 48.5 2.13458C54.3403 2.13458 62.6981 2.13458 68.2962 2.13458C73.4457 2.13458 78.5952 2.13458 83.7446 2.13458C96.1914 2.13458 108.638 2.13458 121.085 2.13458C128.201 2.13458 135.317 2.13458 142.433 2.13458C144.995 2.13458 147.557 2.13458 150.119 2.13458C153.743 2.13458 155.902 1.83179 159 2.13458C172.574 3.46121 188.188 3.36363 202.131 3.36363C219.234 3.36363 238.78 2.05676 254.997 4.28543C265 4.28543 275.064 4.36794 284.264 4.59269C289.236 4.71417 294.304 5.20722 299.634 5.20722C305.305 5.20722 303.826 8.01621 303.826 9.8162C303.826 12.301 293.052 11.3525 289.154 11.3525C277.763 11.3525 267.412 9.50893 255.618 9.50893C241.882 9.50893 228.255 9.11509 214.707 8.8944C192.419 8.53137 169.937 8.8944 147.634 8.8944C125.639 8.8944 103.644 8.8944 81.6486 8.8944C71.3673 8.8944 61.6513 9.50893 51.6057 9.50893C46.8833 9.50893 44.3159 10.6193 39.7283 10.738C37.4068 10.798 37.4068 16.2087 39.7283 16.2688C82.4834 17.3748 126.145 16.2688 168.983 16.2688C175.176 16.2688 193.854 17.687 198.715 16.1322C203.562 14.5819 222.025 13.9674 227.671 15.347C235.383 17.2311 248.957 16.2688 257.714 16.2688C262.198 16.2688 262.045 19.9559 257.015 19.9559C250.96 19.9559 244.905 19.9559 238.85 19.9559C224.465 19.9559 211.121 21.185 196.93 21.185C182.361 21.185 167.792 21.185 153.224 21.185C145.903 21.185 90.2195 20.4028 90.0327 21.7995C89.8351 23.2766 88.5698 26.7158 93.5261 26.7158C99.4128 26.7158 104.507 26.8396 110.217 27.2961C122.526 28.2805 135.72 27.9448 148.411 27.9448C169.474 27.9448 190.538 27.9448 211.602 27.9448" stroke="#F24405" stroke-width="3" stroke-linecap="round"/>
</svg>
