<svg width="56" height="56" viewBox="0 0 56 56" fill="none" xmlns="http://www.w3.org/2000/svg">
<mask id="mask0_88_3427" style="mask-type:alpha" maskUnits="userSpaceOnUse" x="12" y="5" width="43" height="46">
<path d="M52.5846 25.2007C54.8051 26.4226 54.8051 29.5774 52.5847 30.7993L17.0735 50.3402C14.9109 51.5302 12.25 49.986 12.25 47.541L12.25 8.45904C12.25 6.01401 14.9109 4.46976 17.0735 5.65976L52.5846 25.2007Z" fill="#C4C4C4"/>
</mask>
<g mask="url(#mask0_88_3427)">
<path d="M13.3608 49.9561L35.5115 27.6809L13.7256 5.77246C12.8564 6.32964 12.25 7.29159 12.25 8.45884V47.5408C12.25 48.5366 12.6914 49.383 13.3608 49.9561Z" fill="url(#paint0_linear_88_3427)"/>
<path d="M52.5848 25.2009C54.8052 26.4228 54.8052 29.5776 52.5848 30.7995L43.626 35.7293L35.5117 27.6812L43.2122 20.0435L52.5848 25.2009Z" fill="url(#paint1_linear_88_3427)"/>
<path d="M43.626 35.7291L35.5117 27.6809L13.3608 49.9562C14.3349 50.7903 15.7918 51.0456 17.0736 50.3402L43.626 35.7291Z" fill="url(#paint2_linear_88_3427)"/>
<path d="M13.7256 5.77264L35.5115 27.681L43.2121 20.0432L17.0734 5.65976C15.9433 5.03787 14.677 5.16272 13.7256 5.77264Z" fill="url(#paint3_linear_88_3427)"/>
</g>
<defs>
<linearGradient id="paint0_linear_88_3427" x1="27.4346" y1="19.029" x2="12.3743" y2="34.2131" gradientUnits="userSpaceOnUse">
<stop stop-color="#00C3FF"/>
<stop offset="1" stop-color="#1BE2FA"/>
</linearGradient>
<linearGradient id="paint1_linear_88_3427" x1="35.5117" y1="27.6812" x2="55.5425" y2="27.6812" gradientUnits="userSpaceOnUse">
<stop stop-color="#FFCE00"/>
<stop offset="1" stop-color="#FFEA00"/>
</linearGradient>
<linearGradient id="paint2_linear_88_3427" x1="12.8963" y1="52.6754" x2="39.5413" y2="31.3136" gradientUnits="userSpaceOnUse">
<stop stop-color="#DE2453"/>
<stop offset="1" stop-color="#FE3944"/>
</linearGradient>
<linearGradient id="paint3_linear_88_3427" x1="14.1884" y1="3.32739" x2="39.5456" y2="24.0388" gradientUnits="userSpaceOnUse">
<stop stop-color="#11D574"/>
<stop offset="1" stop-color="#01F176"/>
</linearGradient>
</defs>
</svg>
