<svg width="56" height="56" viewBox="0 0 56 56" fill="none" xmlns="http://www.w3.org/2000/svg">
<g clip-path="url(#clip0_88_3390)">
<ellipse cx="17" cy="16" rx="17" ry="16" fill="#184AA9"/>
<circle cx="40" cy="40.0002" r="16" fill="#2173F0"/>
<circle cx="28" cy="27.9999" r="26" fill="url(#paint0_linear_88_3390)"/>
<path d="M28.1375 14C32.3643 14 38 16 36.5911 18.6667C34.6654 22.3115 30.9554 18.6667 28.1375 18.6667C25.3197 18.6667 23.9108 20 23.9108 21.3333C23.9108 22.6667 24.6152 24 28.1375 25.3333C31.6598 26.6667 38 28.6667 38 34C38 39.3333 33.0688 42 26.7286 42C21.049 42 16.8661 39.3333 18.2751 36.6667C19.8953 33.6 23.9108 37.3333 26.7286 37.3333C29.5465 37.3333 32.3643 36.6667 32.3643 34C32.3643 31.3333 28.1375 30.6667 25.3196 29.3333C21.7973 27.6666 18.275 26 18.275 21.3333C18.275 16.6667 23.9108 14 28.1375 14Z" fill="white"/>
</g>
<defs>
<linearGradient id="paint0_linear_88_3390" x1="7.77778" y1="12.111" x2="46.7778" y2="44.611" gradientUnits="userSpaceOnUse">
<stop stop-color="#297AC0"/>
<stop offset="1" stop-color="#48B0F9"/>
</linearGradient>
<clipPath id="clip0_88_3390">
<rect width="56" height="56" fill="white"/>
</clipPath>
</defs>
</svg>
