<svg width="33" height="33" viewBox="0 0 33 33" fill="none" xmlns="http://www.w3.org/2000/svg">
<path d="M12.2887 28.9688C9.05374 28.9688 6.03817 28.0278 3.5 26.4044C5.65499 26.5438 9.45807 26.2099 11.8236 23.9535C8.26508 23.7903 6.66026 21.061 6.45094 19.8947C6.75329 20.0113 8.1953 20.1513 9.00934 19.8247C4.9159 18.7984 4.28793 15.2061 4.42748 14.1097C5.195 14.6462 6.49745 14.8328 7.00913 14.7862C3.19479 12.057 4.56703 7.95151 5.24151 7.0651C7.97882 10.8574 12.0812 12.9873 17.1564 13.1058C17.0607 12.6861 17.0102 12.2492 17.0102 11.8004C17.0102 8.57967 19.6134 5.96875 22.8247 5.96875C24.5025 5.96875 26.0144 6.6815 27.0757 7.82159C28.1969 7.55886 29.8843 6.94382 30.7092 6.41195C30.2934 7.90486 28.9989 9.15024 28.2159 9.61183C28.2224 9.62753 28.2095 9.59606 28.2159 9.61183C28.9037 9.50779 30.7648 9.15012 31.5 8.65131C31.1364 9.49 29.764 10.8845 28.6377 11.6652C28.8473 20.9068 21.7765 28.9688 12.2887 28.9688Z" fill="#47ACDF"/>
</svg>
