<svg width="56" height="56" viewBox="0 0 56 56" fill="none" xmlns="http://www.w3.org/2000/svg">
<path d="M10.1454 12.2426L3.57959 18.1941L5.85142 21.0547C6.86314 20.4258 8.88657 18.7852 9.78892 18.7852C11.8124 18.7852 13.6314 24.2677 15.367 30.2969C16.9256 35.7109 18.5389 49.1641 25.9764 49.1641C34.535 49.1641 52.5272 26.0586 52.5272 15.7751C52.5272 12.0541 51.7889 6.69922 44.3788 6.69922C36.4381 6.69922 32.5315 14.3625 31.5707 18.1941C32.2619 17.7333 34.1433 17.4262 35.18 17.4262C39.4037 17.4262 38.5016 21.8041 37.9256 23.5703C37.3497 25.3366 32.9217 33.9367 30.534 33.9367C27.6159 33.9367 25.888 21.2658 25.0433 15.7751C24.1986 10.2844 22.01 7.28946 18.6695 7.28946C15.9971 7.28946 11.8733 10.5916 10.1454 12.2426Z" fill="#3CB9E6"/>
</svg>
