<svg width="33" height="33" viewBox="0 0 33 33" fill="none" xmlns="http://www.w3.org/2000/svg">
<path d="M2.74451 10.9099C2.87304 8.93108 4.46395 7.38032 6.44447 7.2822C9.31239 7.14011 13.4115 6.96875 16.5 6.96875C19.5885 6.96875 23.6876 7.14011 26.5555 7.2822C28.5361 7.38032 30.127 8.93108 30.2555 10.9099C30.3786 12.8057 30.5 15.1384 30.5 16.9688C30.5 18.7991 30.3786 21.1318 30.2555 23.0276C30.127 25.0064 28.5361 26.5572 26.5555 26.6553C23.6876 26.7974 19.5885 26.9688 16.5 26.9688C13.4115 26.9688 9.31239 26.7974 6.44447 26.6553C4.46395 26.5572 2.87304 25.0064 2.74451 23.0276C2.62136 21.1318 2.5 18.7991 2.5 16.9688C2.5 15.1384 2.62136 12.8057 2.74451 10.9099Z" fill="#FC0D1B"/>
<path d="M13.5 12.9688V20.9688L21.5 16.9688L13.5 12.9688Z" fill="white"/>
</svg>
